<svg xmlns="http://www.w3.org/2000/svg" xmlns:xlink="http://www.w3.org/1999/xlink" viewBox="0 0 379.49 379.49"><defs><style>.cls-1{fill:#fff;}.cls-2{fill:url(#Degradado_sin_nombre_38);}</style><linearGradient id="Degradado_sin_nombre_38" x1="199.45" y1="321.32" x2="196.33" y2="49.85" gradientUnits="userSpaceOnUse"><stop offset="0" stop-color="#e2d63b"/><stop offset="0.55" stop-color="#ff2155"/><stop offset="0.89" stop-color="#5a39af"/></linearGradient></defs><g id="Capa_2" data-name="Capa 2"><g id="Capa_1-2" data-name="Capa 1"><circle class="cls-1" cx="189.74" cy="189.74" r="189.74"/><path class="cls-2" d="M117.58,89.07c42.5-13,85.53-16.28,129.25-7.87l.15.63-12.15,7.9-.27-.31,2.77-3.78-.44-.63-19.83,8.68-.2-.34,8-7.26-.27-.55a7.91,7.91,0,0,0-1.65.33c-4.44,1.89-8.84,3.88-13.3,5.71-8,3.29-16.48,4.73-24.91,6.4-11,2.18-21.86,4.65-32.79,7l-7.31,1.58c3.57-4.25,6.77-8,10-11.86l-.42-.55a9.88,9.88,0,0,0-1.68.78c-8,5.57-16.09,11-23.87,16.81-9.27,6.94-19.69,9.76-31.06,9.75-12.51,0-23.13-7.61-26.54-18.94-1.67-5.55-1.39-6.13,3.87-8.29q10-4.11,20-8.23c.64-.27,1.24-.62,1.86-.93l-.24-.75c-2.7.7-5.4,1.38-8.09,2.1-2.87.77-5.74,1.57-8.6,2.36l-9.08,2.52a65.59,65.59,0,0,1,2.46-6.55A48.82,48.82,0,0,1,84.16,71a8.84,8.84,0,0,1,7.29-2c6.52.78,13,1.71,19.52,2.52,3.88.49,7.77.88,11.66,1.27.38,0,.78-.23,1.83-.57L100.81,58.14c3.42-1.68,6.48-3.19,9.55-4.68,2.5-1.21,5.08-2.28,7.51-3.61,2.73-1.51,5-1.13,7.54.64,5,3.55,10.11,6.93,15.17,10.37l.39-.43L127.1,46.24l.33-.63c3.84-.84,7.64-2,11.53-2.47,7.29-.9,14.62-1.56,22-2.07,5.16-.36,10.39,0,15.53-.54s9.12,1.49,12.87,4.82c5.11,4.53,10.52,8.72,15.83,13a12.79,12.79,0,0,0,2,1.13l.47-.5-9.89-17c3.13.58,5.78,1,8.38,1.56,8,1.8,16,3.71,24,5.47a8.58,8.58,0,0,1,5.82,4.06c2.73,4.46,5.52,8.88,8.31,13.3a18.94,18.94,0,0,0,1.5,1.85l.62-.24Q245.71,61.2,245,54.4l.65-.23a25.83,25.83,0,0,1,1.66,3.33q1.82,5.36,3.4,10.78a6,6,0,0,0,3.37,3.91c5.43,2.59,10.79,5.35,16.29,7.77,11.21,4.91,20.4,12.32,28.66,21.3,12.22,13.26,20.88,28.58,27.76,45a87.59,87.59,0,0,1,6.31,29.56c.41,8.29.86,16.6.74,24.89a104.25,104.25,0,0,1-7.53,36.55c-6.07,15.53-13.33,30.37-23.46,43.75Q269.62,325,215.75,336.17a131.71,131.71,0,0,1-35,2.64c-21-1.32-40.67-7.16-58.59-18.53-21.72-13.79-38.57-31.93-49.89-55.1A93.19,93.19,0,0,1,62.46,224c0-9-.34-18.07,1.14-27,.85-5.2,2.23-10.27,5.22-14.66,4.09-6,7.9-12.34,12.79-17.65,7-7.6,16.26-11.73,26.42-13.46,8-1.36,16.07-1.87,24.14-.22,11.9,2.43,20.82,9,27.49,19,6.8,10.21,8.93,21.41,8.09,33.5-1.18,17.16-5.84,33.42-12,49.34-.52,1.33-.91,2.72-1.35,4.08l.49.45a45.78,45.78,0,0,0,3.73-2.89,76.79,76.79,0,0,0,15.45-21.29,157.09,157.09,0,0,0,14.35-43.34c1.49-8,2.45-16.1,3.62-24.15.43-2.94,2.69-5.26,5.45-5a30.67,30.67,0,0,1,14.09,4.34c4.56,2.91,6,7.49,5.8,12.56a254,254,0,0,1-8.52,58.86q-5.91,21.6-11.83,43.21c-.55,2-.92,4.13-1.31,6.2a3.82,3.82,0,0,0,.18,1.27c.44-.18,1.06-.23,1.29-.56,2.18-3.07,4.42-6.12,6.41-9.31,9.6-15.47,16.4-32.25,22.72-49.24a383.17,383.17,0,0,0,16.95-57.55,93.11,93.11,0,0,0,2.31-21.5A35.63,35.63,0,0,0,242.49,135c-.36-.77-.6-1.59-1-2.6,8.59-.53,16.7.41,23.95,5.15,4.94,3.24,7.33,8.09,7.85,13.86.72,7.84-1.05,15.44-2.65,23-4.74,22.3-13.76,43-24.08,63.16a341,341,0,0,1-36.77,57.66c-2.47,3.11-5.27,6-8,8.89a8.14,8.14,0,0,1-5.83,2.61,16.85,16.85,0,0,1-10.28-3.11,7.54,7.54,0,0,1-3.58-6.94,141,141,0,0,1,1.75-14.79c2.55-13.78,5.54-27.49,7.93-41.31,1.32-7.62,2-15.38,2.58-23.11.46-5.68.41-11.41.55-17.12a14.18,14.18,0,0,0-.25-2.14l-.67,0c-.43,2.09-.89,4.17-1.3,6.27C188.94,224,183.19,243,172.28,259.9c-3.9,6-8.79,11.47-13.5,16.93-2.82,3.27-6.78,3.76-10.8,2.51A28.45,28.45,0,0,1,133.06,269a8.62,8.62,0,0,1-1.3-8.21c3.9-12.82,9.56-24.92,14.87-37.16,4.81-11.1,8.42-22.58,9.81-34.62,1.43-12.43-3.77-21.77-14.16-28.35-5.85-3.7-12.53-4.89-19.25-5.89-11.71-1.75-22.3,1.61-32.25,7.39-7.7,4.47-12.71,11.54-17,19.07A56.35,56.35,0,0,0,66.59,212c.24,6.11.58,12.2.83,18.31.34,8.33,2.87,16.07,6,23.7,4.47,10.72,9.22,21.26,16.44,30.49,19.48,24.91,44,41.83,75.47,47.82,24.58,4.68,48.31,1.91,71.49-7.41a147.86,147.86,0,0,0,41.7-24.93,168,168,0,0,0,14.95-14.88A142.57,142.57,0,0,0,325,227.35a133.85,133.85,0,0,0,4.52-46.1c-1.7-23.83-9.46-45.49-24.31-64.37-4.91-6.25-9.79-12.57-15.23-18.34C282.83,91,273.72,86.08,264.4,81.66a104.36,104.36,0,0,0-30.76-8.84C220.48,71,207.28,71,194.07,71.75A226.37,226.37,0,0,0,125,86.5C122.58,87.44,120.06,88.21,117.58,89.07Z"/></g></g></svg>